<?xml version="1.0" encoding="UTF-8" standalone="no"?>
<!-- Created with Inkscape (http://www.inkscape.org/) -->

<svg
   xmlns:dc="http://purl.org/dc/elements/1.1/"
   xmlns:cc="http://creativecommons.org/ns#"
   xmlns:rdf="http://www.w3.org/1999/02/22-rdf-syntax-ns#"
   xmlns:svg="http://www.w3.org/2000/svg"
   xmlns="http://www.w3.org/2000/svg"
   xmlns:sodipodi="http://sodipodi.sourceforge.net/DTD/sodipodi-0.dtd"
   xmlns:inkscape="http://www.inkscape.org/namespaces/inkscape"
   version="1.0"
   width="64"
   height="64"
   id="svg2"
   inkscape:version="0.46+devel r21713"
   sodipodi:docname="misc.svg"
   inkscape:output_extension="org.inkscape.output.svg.inkscape">
  <metadata
     id="metadata18">
    <rdf:RDF>
      <cc:Work
         rdf:about="">
        <dc:format>image/svg+xml</dc:format>
        <dc:type
           rdf:resource="http://purl.org/dc/dcmitype/StillImage" />
      </cc:Work>
    </rdf:RDF>
  </metadata>
  <sodipodi:namedview
     pagecolor="#ffffff"
     bordercolor="#666666"
     borderopacity="1"
     objecttolerance="10"
     gridtolerance="10"
     guidetolerance="10"
     inkscape:pageopacity="0"
     inkscape:pageshadow="2"
     inkscape:window-width="1920"
     inkscape:window-height="1351"
     id="namedview16"
     showgrid="false"
     inkscape:zoom="8"
     inkscape:cx="16.698671"
     inkscape:cy="30.777005"
     inkscape:window-x="-5"
     inkscape:window-y="-3"
     inkscape:window-maximized="1"
     inkscape:current-layer="svg2" />
  <defs
     id="defs4">
    <inkscape:perspective
       sodipodi:type="inkscape:persp3d"
       inkscape:vp_x="0 : 32 : 1"
       inkscape:vp_y="0 : 1000 : 0"
       inkscape:vp_z="64 : 32 : 1"
       inkscape:persp3d-origin="32 : 21.333333 : 1"
       id="perspective20" />
  </defs>
  <path
     style="fill:#80e0ff;stroke:#40a0ff;stroke-width:1px;stroke-linecap:butt;stroke-linejoin:miter;stroke-opacity:1;fill-opacity:1"
     d="M 43.25,15.125 C 46,9 46.125,8.625 46.125,8.625 L 44.25,6.75 39,6.75 37.25,8.5 l 3.75,7 2.25,-0.375 z"
     id="path6571"
     sodipodi:nodetypes="ccccccc" />
  <path
     sodipodi:type="arc"
     style="fill:none;fill-opacity:1;stroke:#c0a020;stroke-width:3.00169334;stroke-miterlimit:4;stroke-opacity:1;stroke-dasharray:none"
     id="path6569"
     sodipodi:cx="48.625"
     sodipodi:cy="31.4375"
     sodipodi:rx="10.125"
     sodipodi:ry="10.0625"
     d="m 58.75,31.4375 a 10.125,10.0625 0 1 1 -20.25,0 10.125,10.0625 0 1 1 20.25,0 z"
     transform="matrix(1.3284619,0,0,1.3367132,-23.721461,-11.647922)" />
  <g
     id="layer1">
    <path
       d="m 7,6.25 c 16,-4.5 59.75,-8 54.25,6.5 -5.951036,15.689094 7.071982,31.06516 -4.75,41.5 C 45.54203,63.922208 3.8528575,65.721425 6.25,51 8.8129802,35.260126 -4.1590996,14.945843 7,6.25 z"
       id="path3159"
       style="fill:none;stroke:#ffe000;stroke-width:4.99999905;stroke-linecap:round;stroke-linejoin:round;stroke-miterlimit:4;stroke-opacity:1;stroke-dasharray:9.9999979, 9.9999979;stroke-dashoffset:0" />
  </g>
  <path
     style="fill:none;stroke:#ffe15a;stroke-width:1.8;stroke-linecap:butt;stroke-linejoin:miter;stroke-opacity:1;stroke-miterlimit:4;stroke-dasharray:none"
     d="m 21.25,11.5 c 5.875,0 17,4.875 11.375,19.75 C 27,46.125 26,48.5 26,48.5 26,48.5 11.25,38.75 10.375,27.75 9.5,16.75 10.25,11.875 21.25,11.5 z"
     id="path6055"
     sodipodi:nodetypes="cscsc" />
  <path
     sodipodi:type="arc"
     style="fill:#ffe15a;fill-opacity:1;stroke:#c0a020;stroke-width:2;stroke-miterlimit:4;stroke-opacity:1;stroke-dasharray:none"
     id="path6057"
     sodipodi:cx="29.875"
     sodipodi:cy="53.0625"
     sodipodi:rx="4.25"
     sodipodi:ry="4.5625"
     d="m 34.125,53.0625 a 4.25,4.5625 0 1 1 -8.5,0 4.25,4.5625 0 1 1 8.5,0 z"
     transform="matrix(1.2921348,0,0,1.2921348,-11.352528,-15.376404)" />
</svg>
