<?xml version="1.0" encoding="UTF-8" standalone="no"?>
<!-- Created with Inkscape (http://www.inkscape.org/) -->

<svg
   xmlns:dc="http://purl.org/dc/elements/1.1/"
   xmlns:cc="http://creativecommons.org/ns#"
   xmlns:rdf="http://www.w3.org/1999/02/22-rdf-syntax-ns#"
   xmlns:svg="http://www.w3.org/2000/svg"
   xmlns="http://www.w3.org/2000/svg"
   xmlns:xlink="http://www.w3.org/1999/xlink"
   xmlns:sodipodi="http://sodipodi.sourceforge.net/DTD/sodipodi-0.dtd"
   xmlns:inkscape="http://www.inkscape.org/namespaces/inkscape"
   version="1.0"
   width="64"
   height="64"
   id="svg2"
   inkscape:version="0.46+devel r21713"
   sodipodi:docname="drop.svg"
   inkscape:output_extension="org.inkscape.output.svg.inkscape">
  <metadata
     id="metadata68">
    <rdf:RDF>
      <cc:Work
         rdf:about="">
        <dc:format>image/svg+xml</dc:format>
        <dc:type
           rdf:resource="http://purl.org/dc/dcmitype/StillImage" />
        <dc:title></dc:title>
      </cc:Work>
    </rdf:RDF>
  </metadata>
  <sodipodi:namedview
     pagecolor="#ffffff"
     bordercolor="#666666"
     borderopacity="1"
     objecttolerance="10"
     gridtolerance="10"
     guidetolerance="10"
     inkscape:pageopacity="0"
     inkscape:pageshadow="2"
     inkscape:window-width="1515"
     inkscape:window-height="1090"
     id="namedview66"
     showgrid="false"
     inkscape:zoom="8"
     inkscape:cx="33.286797"
     inkscape:cy="35.519814"
     inkscape:window-x="205"
     inkscape:window-y="130"
     inkscape:window-maximized="0"
     inkscape:current-layer="svg2" />
  <defs
     id="defs4">
    <linearGradient
       inkscape:collect="always"
       id="linearGradient3631">
      <stop
         style="stop-color:#a08060;stop-opacity:1;"
         offset="0"
         id="stop3633" />
      <stop
         style="stop-color:#a08060;stop-opacity:0;"
         offset="1"
         id="stop3635" />
    </linearGradient>
    <linearGradient
       inkscape:collect="always"
       id="linearGradient3623">
      <stop
         style="stop-color:#e0c4a0;stop-opacity:1;"
         offset="0"
         id="stop3625" />
      <stop
         style="stop-color:#e0c4a0;stop-opacity:0;"
         offset="1"
         id="stop3627" />
    </linearGradient>
    <linearGradient
       id="linearGradient4369">
      <stop
         style="stop-color:#a08060;stop-opacity:1;"
         offset="0"
         id="stop4371" />
      <stop
         style="stop-color:#a08060;stop-opacity:0;"
         offset="1"
         id="stop4373" />
    </linearGradient>
    <linearGradient
       id="linearGradient4359">
      <stop
         style="stop-color:#e0c4a0;stop-opacity:1;"
         offset="0"
         id="stop4361" />
      <stop
         style="stop-color:#e0c4a0;stop-opacity:0;"
         offset="1"
         id="stop4363" />
    </linearGradient>
    <inkscape:perspective
       sodipodi:type="inkscape:persp3d"
       inkscape:vp_x="0 : 32 : 1"
       inkscape:vp_y="0 : 1000 : 0"
       inkscape:vp_z="64 : 32 : 1"
       inkscape:persp3d-origin="32 : 21.333333 : 1"
       id="perspective70" />
    <linearGradient
       inkscape:collect="always"
       xlink:href="#linearGradient4359"
       id="linearGradient4367"
       x1="53.958157"
       y1="34.012794"
       x2="70.625"
       y2="34.012794"
       gradientUnits="userSpaceOnUse"
       gradientTransform="matrix(1,0.5,0,1,19.375,-60.1875)" />
    <linearGradient
       inkscape:collect="always"
       xlink:href="#linearGradient4369"
       id="linearGradient4375"
       x1="54.083157"
       y1="34.012794"
       x2="70.625"
       y2="34.012793"
       gradientUnits="userSpaceOnUse"
       gradientTransform="matrix(1,0.5,0,1,19.375,-60.1875)" />
    <linearGradient
       inkscape:collect="always"
       xlink:href="#linearGradient3623"
       id="linearGradient3629"
       x1="54.216618"
       y1="32.202702"
       x2="87.593872"
       y2="32.202702"
       gradientUnits="userSpaceOnUse" />
    <linearGradient
       inkscape:collect="always"
       xlink:href="#linearGradient3631"
       id="linearGradient3637"
       x1="54.216618"
       y1="32.202702"
       x2="87.593872"
       y2="32.202702"
       gradientUnits="userSpaceOnUse" />
  </defs>
  <path
     style="fill:#806020;stroke:#604000;stroke-width:1px;stroke-linecap:butt;stroke-linejoin:miter;stroke-opacity:1;fill-opacity:1"
     d="m 18.75,50.5 c 1.625,-3.75 6.5,-3.125 6.375,-6 -0.125,-2.875 -5.75,-4.125 -5.75,-4.125 l 20.5,-0.125 c 0,0 -3,-0.375 -3.75,2.75 -0.75,3.125 7.875,3.25 7.375,6.875 -0.5,3.625 0.5,10.5 -5.375,11.75 -5.875,1.25 -18.5,-1.25 -19.25,-4 -0.75,-2.75 -1.625,-4.75 -0.125,-7.125 z"
     id="path2845" />
  <path
     style="fill:none;stroke:#a09000;stroke-width:1px;stroke-linecap:butt;stroke-linejoin:miter;stroke-opacity:1"
     d="m 24.75,45 c 3.375,1.625 8.75,0.375 11.375,-0.875 C 38.75,42.875 38.75,41 40.5,41 c 1.75,0 3.25,0.625 1.5,2.375 -1.75,1.75 -4.375,2.5 -4,-0.375 0.375,-2.875 11,-7.5 9,-3.75 -2,3.75 1.25,6.625 -3.75,5 -5,-1.625 -6,-3.25 -6,-0.75 0,2.5 -0.75,4.25 1.125,2.5 1.875,-1.75 3,0.625 2.5,-2.125 -0.5,-2.75 -1,-6.5 0.5,-4.25 1.5,2.25 -1.625,5.25 1.875,7.625 3.5,2.375 4,5.25 4,5.25"
     id="path2847" />
  <path
     style="fill:url(#linearGradient3629);fill-opacity:1.0;stroke:url(#linearGradient3637);stroke-width:1px;stroke-linecap:butt;stroke-linejoin:miter;stroke-opacity:1"
     d="M 66.625,30.375 C 65.75,34.5 55.875,44 50.375,46.875 44.875,49.75 42.5,44.5 43.5,42.125 44.5,39.75 55.67406,31.853303 54.625,30.25 52.631989,27.204034 38.875,28.25 30.875,30.5 19.282638,38.538283 5.0302474,30.192463 14.625,25.625 23.25,23.625 49.25,17.75 55,18.5 c 5.75,0.75 21.375,-5.25 28.75,1.25 7.375,6.5 0.25,12.375 0.25,12.375 0,0 -3.875,-8.125 -17.375,-1.75 z"
     id="path3621"
     sodipodi:nodetypes="csssccsscc" />
  <g
     id="layer1">
    <path
       d="m 7,6.25 c 16,-4.5 59.75,-8 54.25,6.5 -5.951036,15.689094 7.071982,31.06516 -4.75,41.5 C 45.54203,63.922208 3.8528575,65.721425 6.25,51 8.8129802,35.260126 -4.1590996,14.945843 7,6.25 z"
       id="path3159"
       style="fill:none;stroke:#ffe000;stroke-width:4.99999905;stroke-linecap:round;stroke-linejoin:round;stroke-miterlimit:4;stroke-opacity:1;stroke-dasharray:9.9999979, 9.9999979;stroke-dashoffset:0" />
  </g>
</svg>
