<?xml version="1.0" encoding="UTF-8" standalone="no"?>
<!-- Created with Inkscape (http://www.inkscape.org/) -->

<svg
   xmlns:dc="http://purl.org/dc/elements/1.1/"
   xmlns:cc="http://creativecommons.org/ns#"
   xmlns:rdf="http://www.w3.org/1999/02/22-rdf-syntax-ns#"
   xmlns:svg="http://www.w3.org/2000/svg"
   xmlns="http://www.w3.org/2000/svg"
   xmlns:xlink="http://www.w3.org/1999/xlink"
   xmlns:sodipodi="http://sodipodi.sourceforge.net/DTD/sodipodi-0.dtd"
   xmlns:inkscape="http://www.inkscape.org/namespaces/inkscape"
   version="1.0"
   width="64"
   height="64"
   id="svg2"
   inkscape:version="0.46+devel r21713"
   sodipodi:docname="rhand.svg"
   inkscape:output_extension="org.inkscape.output.svg.inkscape"
   inkscape:export-filename="/home/hirato/PlatinumArtsSandboxbeta/svn/trunk/data/hud/2.3/icons/rhand.png"
   inkscape:export-xdpi="180"
   inkscape:export-ydpi="180">
  <metadata
     id="metadata68">
    <rdf:RDF>
      <cc:Work
         rdf:about="">
        <dc:format>image/svg+xml</dc:format>
        <dc:type
           rdf:resource="http://purl.org/dc/dcmitype/StillImage" />
        <dc:title></dc:title>
      </cc:Work>
    </rdf:RDF>
  </metadata>
  <sodipodi:namedview
     pagecolor="#ffffff"
     bordercolor="#666666"
     borderopacity="1"
     objecttolerance="10"
     gridtolerance="10"
     guidetolerance="10"
     inkscape:pageopacity="0"
     inkscape:pageshadow="2"
     inkscape:window-width="1251"
     inkscape:window-height="871"
     id="namedview66"
     showgrid="false"
     inkscape:zoom="8"
     inkscape:cx="33.475515"
     inkscape:cy="35.519814"
     inkscape:window-x="205"
     inkscape:window-y="130"
     inkscape:window-maximized="0"
     inkscape:current-layer="svg2" />
  <defs
     id="defs4">
    <linearGradient
       inkscape:collect="always"
       id="linearGradient4369">
      <stop
         style="stop-color:#a08060;stop-opacity:1;"
         offset="0"
         id="stop4371" />
      <stop
         style="stop-color:#a08060;stop-opacity:0;"
         offset="1"
         id="stop4373" />
    </linearGradient>
    <linearGradient
       id="linearGradient4359">
      <stop
         style="stop-color:#e0c4a0;stop-opacity:1;"
         offset="0"
         id="stop4361" />
      <stop
         style="stop-color:#e0c4a0;stop-opacity:0;"
         offset="1"
         id="stop4363" />
    </linearGradient>
    <inkscape:perspective
       sodipodi:type="inkscape:persp3d"
       inkscape:vp_x="0 : 32 : 1"
       inkscape:vp_y="0 : 1000 : 0"
       inkscape:vp_z="64 : 32 : 1"
       inkscape:persp3d-origin="32 : 21.333333 : 1"
       id="perspective70" />
    <linearGradient
       inkscape:collect="always"
       xlink:href="#linearGradient4359"
       id="linearGradient4367"
       x1="53.958157"
       y1="34.012794"
       x2="70.625"
       y2="34.012794"
       gradientUnits="userSpaceOnUse"
       gradientTransform="matrix(-1,0,0,1,63.667,-3.75)" />
    <linearGradient
       inkscape:collect="always"
       xlink:href="#linearGradient4369"
       id="linearGradient4375"
       x1="54.083157"
       y1="34.012794"
       x2="70.625"
       y2="34.012793"
       gradientUnits="userSpaceOnUse"
       gradientTransform="matrix(-1,0,0,1,63.667,-3.75)" />
  </defs>
  <path
     style="fill:url(#linearGradient4367);fill-opacity:1;stroke:url(#linearGradient4375);stroke-width:1px;stroke-linecap:butt;stroke-linejoin:miter;stroke-opacity:1"
     d="m -6.458,26.5 c 4.1420848,-1.375 7.1615438,-1.625 14.6249998,0.75 7.6419852,2.117125 5.4806052,-0.458096 7.6250002,-1.375 3.5,-8.5 4.75,-18.375 4.75,-18.375 0,0 7.625,0.5 5.375,6.875 -2.271055,6.434657 -3.25,12.25 -2,12.375 1.25,0.125 27.125,-0.375 28.75,0.75 1.625,1.125 1.875,4.375 -0.375,4.5 -2.25,0.125 -17.375,0.25 -17.75,1.5 -0.375,1.25 20,-0.5 20.75,0.875 0.75,1.375 0.875,3.5 -0.625,4.375 -1.5,0.875 -20,0.25 -20.125,1.375 -0.125,1.125 19.5,0.875 19.5,2.75 0,1.875 0.5,2.375 -1.25,3 -1.75,0.625 -19.5,-1.125 -19.5,-0.125 0,1 17.875,1.5 17.875,3.125 0,1.625 -0.5,3.25 -2.25,3 -1.75,-0.25 -15,0 -17.875,-0.75 -2.875,-0.75 -13.75,0.75 -17.875,-4.75 -3.5000002,-4.5 -19.375,-5.25 -19.375,-5.25"
     id="path3842"
     sodipodi:nodetypes="cccssssssssssssssscc" />
  <g
     id="layer1">
    <path
       d="m 7,6.25 c 16,-4.5 59.75,-8 54.25,6.5 -5.951036,15.689094 7.071982,31.06516 -4.75,41.5 C 45.54203,63.922208 3.8528575,65.721425 6.25,51 8.8129802,35.260126 -4.1590996,14.945843 7,6.25 z"
       id="path3159"
       style="fill:none;stroke:#ffe000;stroke-width:4.99999905;stroke-linecap:round;stroke-linejoin:round;stroke-miterlimit:4;stroke-opacity:1;stroke-dasharray:9.9999979, 9.9999979;stroke-dashoffset:0" />
  </g>
</svg>
