<?xml version="1.0" encoding="UTF-8" standalone="no"?>
<!-- Created with Inkscape (http://www.inkscape.org/) -->
<svg
   xmlns:svg="http://www.w3.org/2000/svg"
   xmlns="http://www.w3.org/2000/svg"
   version="1.0"
   width="64"
   height="64"
   id="svg2">
  <defs
     id="defs4" />
  <path
     d="m -1.6892045e-8,60.169127 0,-3.829944 L 0.87436037,55.317408 C 1.3868574,54.718506 2.8608093,53.645672 4.4358289,52.72515 5.9137385,51.861386 8.360079,50.415862 9.8721415,49.512877 c 1.5120625,-0.902984 3.5099635,-1.963779 4.4397825,-2.357316 0.929818,-0.393539 1.753267,-0.816988 1.829887,-0.940993 0.07662,-0.124008 -0.149921,-0.569295 -0.503422,-0.989524 -0.705205,-0.838318 -0.742097,-1.215924 -0.386528,-3.95625 0.132422,-1.02057 0.183173,-1.913195 0.112778,-1.983609 -0.07039,-0.07041 -0.918467,0.254489 -1.884607,0.722008 -1.360834,0.65851 -1.85255,0.790525 -2.182399,0.585931 -0.23418,-0.145256 -1.3073378,-2.272387 -2.3847957,-4.726959 l -1.9590147,-4.462861 0.428609,-5.014307 c 0.2357351,-2.757869 0.5362582,-5.149687 0.6678294,-5.315151 0.1315711,-0.165463 0.8493576,-0.478264 1.5950811,-0.695112 1.6490529,-0.479524 1.8559769,-0.391928 4.0527859,1.715625 1.753772,1.682518 1.888411,1.659311 2.128314,-0.36685 0.08802,-0.74335 0.727698,-2.434617 1.636402,-4.326497 1.366748,-2.845506 1.609581,-3.19303 2.894703,-4.142666 0.771541,-0.570128 2.077108,-1.858395 2.901259,-2.862819 1.582711,-1.928904 1.848111,-2.0933367 5.47629,-3.3929233 l 2.117802,-0.7585815 2.989062,0.6849154 2.989062,0.6849152 3.765567,2.7021292 c 3.508074,2.517357 3.848453,2.833988 4.977746,4.630451 0.6667,1.060578 1.466495,2.462405 1.777328,3.115173 l 0.565143,1.186851 0.978222,-1.311849 c 0.803352,-1.077345 1.165566,-1.351421 2.026256,-1.533218 0.801403,-0.169274 1.182793,-0.133051 1.620651,0.153924 0.50669,0.332087 0.670916,0.942135 1.426512,5.299094 l 0.8539,4.923802 -0.69935,4.797132 c -0.384641,2.638422 -0.811895,4.937753 -0.949448,5.109626 -0.417419,0.521565 -1.285293,0.352815 -2.197753,-0.427334 -0.47592,-0.406906 -0.94056,-0.744401 -1.032536,-0.749989 -0.09198,-0.0056 -0.14821,1.89218 -0.124964,4.217264 l 0.04227,4.227423 1.353329,0.272417 c 0.942522,0.189722 2.987866,1.190372 6.738043,3.296475 2.961593,1.663233 5.526222,3.210128 5.699177,3.437545 0.232932,0.30628 0.316526,2.05013 0.322415,6.725894 l 0.0079,6.312409 -31.990736,0 -31.990736016892043,0 0,-3.829945 z"
     id="path2541"
     style="fill:#ecdf9b" />
  <path
     d="m 5.2484801,63.792653 c 0,-0.113529 0.2811686,-0.470633 0.6248191,-0.793567 0.3436504,-0.322932 0.624819,-0.805808 0.624819,-1.073059 0,-0.267251 0.3092855,-0.841893 0.687301,-1.276982 0.3780155,-0.435088 1.2496381,-1.733769 1.9369391,-2.885958 0.6873013,-1.15219 1.5533777,-2.417267 1.9246137,-2.811284 0.371237,-0.394016 1.256991,-2.001646 1.968344,-3.57251 0.901193,-1.990084 1.632627,-3.210284 2.412224,-4.02414 l 1.118855,-1.168023 -0.527657,-0.65639 c -0.872303,-1.085117 -0.955679,-1.554688 -0.707312,-3.98356 0.130883,-1.279951 0.165999,-2.399173 0.07804,-2.487162 -0.08796,-0.08799 -0.889489,0.199881 -1.781167,0.639709 -0.891678,0.439826 -1.818347,0.799686 -2.059264,0.799686 -0.331303,0 -0.937201,-1.172568 -2.486713,-4.812431 l -2.0486823,-4.81243 0.2711145,-2.249967 c 0.2957521,-2.454435 0.402447,-3.445237 0.6252617,-5.80638 0.080782,-0.856043 0.2741404,-1.649065 0.429684,-1.762271 0.155544,-0.113207 0.8224954,-0.341952 1.4821141,-0.50832 1.492999,-0.376565 1.786476,-0.240832 3.876319,1.792805 1.440826,1.402076 1.604719,1.496476 1.902628,1.095895 0.179294,-0.241087 0.398549,-1.055885 0.487234,-1.810663 0.190298,-1.619581 2.380816,-6.317515 3.379525,-7.247958 1.370225,-1.276562 4.188074,-4.087075 5.037409,-5.0242936 0.739832,-0.8163852 1.342897,-1.134823 3.639615,-1.9218351 l 2.75285,-0.9433144 2.733541,0.6335219 c 1.503445,0.3484371 2.977005,0.7380235 3.274574,0.8657474 0.297569,0.1277242 2.097048,1.356986 3.998842,2.7316928 3.693084,2.669537 3.839616,2.84044 6.108781,7.124633 l 0.910526,1.719079 1.027081,-1.390687 c 0.919389,-1.244875 1.1477,-1.40878 2.177501,-1.563251 0.876562,-0.131485 1.242196,-0.08077 1.535916,0.213029 0.240488,0.240555 0.705663,2.156663 1.236696,5.094096 l 0.851209,4.708503 -0.645263,4.374936 c -0.83772,5.679803 -0.838524,5.683493 -1.278205,5.85226 -0.4037,0.154958 -1.305297,-0.276673 -2.4016,-1.149743 -0.375766,-0.299251 -0.721668,-0.495378 -0.768669,-0.435836 -0.047,0.05954 0.0045,1.401987 0.114372,2.983214 0.125299,1.802674 0.10318,3.420784 -0.0593,4.338395 -0.142521,0.804891 -0.223945,1.485656 -0.180943,1.512813 0.043,0.02716 0.741501,0.18177 1.552219,0.343587 0.909597,0.181556 2.392984,0.811167 3.873878,1.644235 1.319915,0.742506 3.412052,1.883012 4.649194,2.534453 1.237142,0.65144 2.699218,1.484968 3.249059,1.852285 l 0.99971,0.667848 0.0667,6.428007 0.0667,6.428004 -29.370715,0 c -16.153893,0 -29.3707149,-0.09289 -29.3707149,-0.206419 z M 24.954364,59.855822 c 0.433499,-0.216317 0.788182,-0.563414 0.788182,-0.771324 0,-0.207909 0.393636,-0.726611 0.874746,-1.15267 0.481111,-0.426062 0.874747,-0.862118 0.874747,-0.969016 0,-0.106902 -0.445451,-0.314344 -0.989893,-0.460986 -0.84652,-0.228007 -1.027311,-0.401395 -1.248244,-1.19712 -0.142094,-0.511771 -0.25898,-1.105864 -0.259745,-1.320206 -7.67e-4,-0.214342 -0.154728,-0.599464 -0.342135,-0.855831 -0.324165,-0.443443 -0.363674,-0.431113 -0.812264,0.253512 -0.580937,0.88661 -0.647794,3.885073 -0.126635,5.679462 0.18969,0.653116 0.369228,1.187483 0.398975,1.187483 0.02975,0 0.408766,-0.176987 0.842266,-0.393304 z m 32.504477,-4.586179 c 0.287984,-0.182382 0.230153,-0.427103 -0.324764,-1.374257 -0.491263,-0.838508 -0.58669,-1.179026 -0.350378,-1.25027 0.178621,-0.05385 0.511015,-0.157364 0.738654,-0.230033 0.230148,-0.07347 0.607944,0.08236 0.851,0.351012 0.561721,0.620864 1.022227,0.613231 1.362409,-0.02258 0.224332,-0.419284 0.108375,-0.758584 -0.678509,-1.985386 -1.222066,-1.905283 -1.703941,-2.130342 -3.464889,-1.61828 -1.577099,0.458599 -1.618904,0.600705 -0.849126,2.886376 0.560234,1.663491 1.649587,3.475122 2.086027,3.46914 0.153559,-0.0021 0.436867,-0.103681 0.629576,-0.225725 z"
     id="path2539"
     style="fill:#c9b174" />
  <path
     d="m 8.2476116,63.542656 c 0,-0.251026 0.2844829,-0.723744 0.6321842,-1.050482 0.4051434,-0.38072 0.8652305,-1.361536 1.2810912,-2.731041 0.356899,-1.175333 1.014755,-2.868208 1.461902,-3.761945 0.447146,-0.893737 1.13171,-2.581213 1.521251,-3.749946 0.822378,-2.467361 1.185954,-3.137299 2.436101,-4.48884 1.090126,-1.17854 1.123115,-1.52161 0.255705,-2.659156 l -0.659377,-0.864725 0.285918,-2.515101 c 0.157254,-1.383305 0.226556,-2.611174 0.154004,-2.728598 -0.07255,-0.117423 -0.972407,0.185763 -1.999678,0.673746 -1.02727,0.487983 -2.01934,0.82906 -2.204598,0.757949 -0.18526,-0.07111 -1.207778,-2.133272 -2.2722635,-4.582587 L 7.2044225,31.388635 7.6330561,26.50666 c 0.2357485,-2.685086 0.5271243,-4.989271 0.6475018,-5.120413 0.2116202,-0.230545 2.2727131,-0.853048 2.8987971,-0.875512 0.169126,-0.0061 1.178165,0.782855 2.242307,1.753161 2.181279,1.988935 2.387304,1.972035 2.646502,-0.21709 0.08576,-0.724277 0.744836,-2.458697 1.657317,-4.361359 1.293848,-2.697866 1.670253,-3.265962 2.579136,-3.892601 0.969467,-0.668409 2.488686,-2.18175 4.225777,-4.2094249 0.365228,-0.4263244 1.206018,-0.9641239 1.874457,-1.1989715 0.666685,-0.2342303 1.662062,-0.6264684 2.211947,-0.8716405 1.741476,-0.7764501 2.375224,-0.7974439 5.306099,-0.175774 3.012772,0.6390425 2.658425,0.4525662 7.815017,4.1126779 2.547802,1.808413 3.445992,2.895024 5.155922,6.23753 0.509967,0.996861 0.996576,1.812474 1.081353,1.812474 0.08478,0 0.570468,-0.5578 1.079306,-1.239555 0.940125,-1.259608 2.358834,-1.964119 3.259253,-1.6185 0.521584,0.200204 0.507806,0.148167 1.439008,5.435295 l 0.825164,4.68506 -0.73415,4.931226 c -0.694286,4.663465 -0.764646,4.935559 -1.295802,5.011023 -0.356859,0.0507 -0.958592,-0.245555 -1.65027,-0.812489 -0.598741,-0.490755 -1.166332,-0.892285 -1.261315,-0.892285 -0.09498,0 -0.139631,1.77185 -0.09922,3.937443 0.04041,2.165594 -0.01954,4.232742 -0.133219,4.593662 -0.19834,0.629692 -0.160264,0.66318 0.942057,0.82853 1.294993,0.19425 3.681622,1.21488 4.143995,1.772159 0.167949,0.202422 0.494032,0.36804 0.724628,0.36804 0.230598,0 0.532298,0.113061 0.670446,0.251246 0.138147,0.138186 1.425899,0.853528 2.861671,1.589647 1.435771,0.736119 3.172831,1.671256 3.860132,2.07808 l 1.249638,0.739682 0.07174,2.592732 0.07175,2.592735 -0.50912,-0.460873 c -0.280014,-0.253479 -0.509117,-0.573439 -0.509117,-0.711025 0,-0.137583 -0.264942,-0.598263 -0.588758,-1.023737 -0.323818,-0.425472 -0.841846,-1.27983 -1.151173,-1.898571 -0.309329,-0.618741 -0.972244,-1.555354 -1.473144,-2.081367 -0.943317,-0.990603 -5.039593,-3.672774 -5.594203,-3.66299 -0.173295,0.0031 -0.58497,0.213117 -0.914832,0.466799 -0.572052,0.439936 -0.58071,0.488436 -0.187446,1.050052 0.226767,0.323848 0.412306,1.000381 0.412306,1.503409 0,0.907537 0.635516,2.812681 1.832994,5.494935 0.342746,0.767721 0.701299,1.948954 0.796784,2.624962 0.266438,1.88631 1.368171,3.354073 2.517638,3.354073 0.356797,0 0.959765,0.221545 1.339932,0.492321 0.559248,0.398331 0.935557,0.463375 1.97108,0.3407 1.547749,-0.18336 2.038532,0.135053 2.038532,1.322558 l 0,0.844378 -14.870693,0 c -10.176928,0 -14.870694,-0.08248 -14.870694,-0.261323 0,-0.161576 -0.322972,-0.20072 -0.846125,-0.102549 -0.97721,0.183377 -1.279704,-0.122441 -1.196858,-1.210007 0.04556,-0.598045 -0.02254,-0.688795 -0.421748,-0.562057 -0.360764,0.114533 -0.60421,-0.06609 -1.005094,-0.745724 -0.290959,-0.493276 -0.529017,-1.062923 -0.529017,-1.26588 0,-0.484273 -1.117579,-2.681821 -1.542551,-3.033188 -0.18255,-0.150931 -0.781776,-0.355545 -1.331617,-0.454696 -1.57933,-0.284796 -1.816279,-0.504895 -2.120236,-1.969449 -0.416157,-2.005164 -0.909496,-2.248207 -1.830611,-0.901847 -0.920743,1.345816 -0.277778,6.336438 1.189499,9.232766 l 0.645383,1.273954 -8.501749,0 c -8.0645525,0 -8.5017494,-0.02347 -8.5017494,-0.456416 z"
     id="path2537"
     style="fill:#a89765" />
  <path
     d="m 11.12915,63.761005 c -0.0809,-0.130935 -0.04361,-0.890299 0.08287,-1.687475 0.126479,-0.797174 0.175285,-2.011901 0.108456,-2.699391 -0.105095,-1.081161 0.05049,-1.675143 1.152019,-4.397966 0.700439,-1.73139 1.273525,-3.398833 1.273525,-3.705429 0,-0.750947 1.027474,-2.457977 2.112848,-3.510252 1.058617,-1.026335 1.100694,-1.513335 0.229471,-2.655881 -0.616353,-0.808303 -0.646467,-0.972816 -0.488881,-2.670781 0.09236,-0.995181 0.221609,-2.146914 0.287217,-2.559408 0.22499,-1.414572 -0.143573,-1.505984 -2.099495,-0.520728 -0.977997,0.492648 -1.936509,0.895722 -2.130028,0.895722 -0.216857,0 -1.090988,-1.700697 -2.2783167,-4.432666 L 7.4523719,31.384083 7.9124736,26.382965 8.3725754,21.381844 9.3722859,21.169449 c 2.0127291,-0.427618 2.2528001,-0.344977 4.1222221,1.419026 0.968246,0.913645 1.864169,1.661173 1.99094,1.661173 0.367886,0 0.520927,-0.395848 0.783456,-2.026451 0.337874,-2.098583 2.675917,-6.956838 3.730676,-7.752028 1.438041,-1.084149 3.606897,-3.164298 4.368364,-4.189695 0.835485,-1.1250707 1.291041,-1.3866833 4.430892,-2.5445327 l 2.181543,-0.8044643 2.692045,0.5635835 c 1.480627,0.309971 2.902475,0.6738808 3.159665,0.8086881 0.257193,0.1348075 1.987367,1.3218775 3.844837,2.6379334 3.664569,2.596426 4.312556,3.352861 6.215812,7.256085 0.999668,2.050134 1.051843,2.05312 2.370698,0.135704 0.554813,-0.806615 0.987547,-1.13695 1.763005,-1.345817 0.811013,-0.218442 1.093303,-0.206921 1.338775,0.05464 0.368251,0.392393 1.869079,8.474227 1.869079,10.064839 0,0.606306 -0.218535,2.433021 -0.485634,4.059371 -0.267098,1.626348 -0.561038,3.491366 -0.653196,4.144482 -0.209798,1.486778 -0.70169,1.556055 -2.218873,0.312495 -1.519915,-1.245799 -1.723854,-1.170575 -1.524951,0.562492 0.306699,2.672296 0.242455,6.140644 -0.132727,7.165684 -0.300525,0.82107 -0.303299,0.996676 -0.01727,1.092781 0.187434,0.06298 0.48585,0.297744 0.663146,0.521703 0.177299,0.22396 0.958413,1.170973 1.735813,2.104477 1.142856,1.372342 1.45525,1.946669 1.631772,2.999957 0.120075,0.716471 0.675799,2.390017 1.234939,3.718986 0.589275,1.400585 1.017209,2.819284 1.018019,3.374951 7.64e-4,0.527254 0.111152,1.35382 0.245301,1.836815 0.134149,0.482993 0.348512,1.551728 0.476357,2.374966 0.127848,0.823236 0.311747,1.749914 0.408666,2.059285 l 0.176217,0.562492 -6.902159,0 c -7.712042,0 -7.359026,0.100443 -6.280351,-1.786956 0.341996,-0.598402 0.623164,-1.2757 0.624819,-1.505106 0.0043,-0.597469 -1.351646,-1.344023 -3.337749,-1.837676 l -1.71623,-0.426574 -2.162591,2.153166 c -1.189426,1.184241 -2.332317,2.153164 -2.53976,2.153164 -0.523545,0 -3.231914,-2.848616 -4.226006,-4.444843 -1.016471,-1.632161 -1.539229,-2.008535 -3.072255,-2.211953 -1.314515,-0.174425 -1.518251,-0.397014 -1.801401,-1.968079 -0.334781,-1.85753 -1.152566,-2.146689 -2.106913,-0.744979 -0.550913,0.809163 -0.585903,1.04457 -0.454927,3.060748 0.170485,2.624369 0.771685,5.052974 1.608231,6.496603 l 0.615682,1.062485 -6.882008,0 c -4.088488,0 -6.941715,-0.09664 -7.029101,-0.238067 z M 32.490592,26.331561 c 0,-0.169628 -0.13271,-0.599759 -0.29491,-0.955849 l -0.294913,-0.647435 -1.579544,1.565937 c -0.868752,0.861267 -1.579548,1.70889 -1.579548,1.88361 0,0.202664 0.678596,-0.0182 1.874457,-0.610091 1.030952,-0.510271 1.874458,-1.066547 1.874458,-1.236172 z m 30.415782,25.842562 c -0.881055,-1.381595 -0.908312,-1.47756 -0.374892,-1.319848 0.316384,0.09354 0.743945,0.202624 0.950135,0.242407 0.387583,0.07477 0.591991,0.968536 0.453974,1.984961 -0.06742,0.49649 -0.219245,0.362615 -1.029217,-0.90752 z"
     id="path2535"
     style="fill:#966120" />
  <path
     d="m 11.648597,63.604213 c -0.08332,-0.217174 -0.0937,-0.639043 -0.02307,-0.937487 0.07063,-0.298446 0.220944,-1.667611 0.334038,-3.042591 0.163669,-1.989841 0.390237,-2.951954 1.110342,-4.715036 1.32485,-3.243718 1.350774,-3.271665 3.369721,-3.63257 1.455874,-0.260251 1.786395,-0.412379 2.022599,-0.930931 0.465154,-1.021183 0.497325,-0.950201 -2.289798,-5.05218 l -0.734432,-1.080906 0.279984,-2.65524 c 0.15399,-1.460381 0.185106,-2.75014 0.06915,-2.866133 -0.115961,-0.115991 -1.041229,0.18717 -2.056151,0.67369 -1.014923,0.486523 -1.975757,0.884587 -2.135187,0.884587 -0.278885,0 -3.6604142,-7.468842 -3.9615178,-8.749873 -0.080796,-0.343745 -0.036358,-1.524978 0.098752,-2.624962 0.2838268,-2.310746 0.6875967,-4.432249 0.7332315,-3.852574 0.017206,0.218552 0.2843343,0.519287 0.5936198,0.668303 1.3544296,0.652568 3.4777516,2.639959 4.2132266,3.943508 0.870851,1.54349 1.577454,2.104555 1.827991,1.451484 0.08547,-0.222797 0.265812,-1.470134 0.400758,-2.771863 l 0.245354,-2.366777 -1.255312,-1.37389 c -1.787226,-1.956048 -2.068235,-2.624994 -0.572879,-1.363745 1.764681,1.488411 2.021235,1.410471 3.161126,-0.960333 1.007389,-2.095216 2.776076,-3.998959 3.715266,-3.998959 0.842687,0 5.246109,-2.526167 7.475558,-4.288598 1.325572,-1.047892 3.343437,-2.291459 5.248481,-3.234525 1.702225,-0.8426615 3.162477,-1.6396835 3.245005,-1.7711611 0.216037,-0.3441652 1.520483,0.4160744 6.066263,3.5354581 1.488837,1.021662 2.76494,2.940538 4.66104,7.008808 0.108802,0.233442 0.541707,0.382115 1.146828,0.393855 0.534629,0.01037 1.466806,0.111808 2.071503,0.225409 l 1.099454,0.206548 -0.134548,-1.676648 c -0.127833,-1.592958 -0.108522,-1.67284 0.386903,-1.600388 0.472353,0.06908 0.60303,0.531611 1.38786,4.912355 l 0.866409,4.836098 -0.706955,4.851263 c -0.805227,5.525617 -0.818608,5.54509 -2.732616,3.976274 -0.58713,-0.481243 -1.199825,-0.874987 -1.36154,-0.874987 -0.215963,0 -0.279055,1.111792 -0.237632,4.187439 0.03102,2.303092 -0.02732,4.524935 -0.129632,4.937429 -0.168329,0.678608 -0.01838,0.945569 1.575489,2.804902 0.968839,1.130204 1.761525,2.157039 1.761525,2.281857 0,0.497065 -0.77092,0.803365 -2.713628,1.078174 -1.119248,0.158328 -2.034997,0.406076 -2.034997,0.550554 0,0.144481 0.433754,0.886317 0.963901,1.648531 0.530143,0.762212 1.389032,2.342076 1.908637,3.510809 0.519606,1.168734 0.984902,2.171154 1.033987,2.227603 0.04909,0.05645 0.30493,-0.09261 0.568539,-0.331235 0.281713,-0.255018 0.76742,-0.400379 1.178266,-0.35263 0.547359,0.06362 0.817226,0.325273 1.244082,1.206223 0.69206,1.428284 1.016923,2.535348 1.228789,4.187439 l 0.168317,1.312481 -6.396608,0 c -3.518134,0 -6.396608,-0.05238 -6.396608,-0.116393 0,-0.06402 0.393636,-0.832723 0.874747,-1.708236 0.845932,-1.539409 1.065626,-2.522205 0.683474,-3.05751 -0.223395,-0.312926 -3.40751,-1.770362 -4.391563,-2.010111 -0.653743,-0.159273 -0.893768,0.0245 -3.082095,2.359779 -1.305227,1.392874 -2.554258,2.5325 -2.775624,2.5325 -0.650801,0 -2.914371,-2.564593 -3.302885,-3.742126 -0.29556,-0.895802 -0.52975,-1.144445 -1.449251,-1.538698 -0.603198,-0.258633 -1.564785,-0.541654 -2.136856,-0.62894 -1.608967,-0.245489 -1.853623,-0.465741 -2.160659,-1.945134 -0.476687,-2.296812 -1.659548,-2.580418 -2.690077,-0.644979 -0.523397,0.982994 -0.57856,1.330084 -0.43705,2.74996 0.259116,2.599903 0.871001,5.023847 1.625018,6.437407 l 0.700099,1.312481 -3.789719,0 c -3.519047,0 -3.812017,-0.03571 -4.101886,-0.499993 -0.17169,-0.274996 -0.4161,-0.499993 -0.543132,-0.499993 -0.127033,0 -0.30236,0.224997 -0.389616,0.499993 -0.140843,0.443879 -0.378149,0.499993 -2.114487,0.499993 -1.551701,0 -1.987141,-0.08159 -2.10732,-0.394859 z m 18.70485,-22.478727 c 2.881361,-0.409187 3.63671,-0.773348 3.63671,-1.753297 0,-0.302358 -0.280032,-0.851983 -0.62229,-1.221387 -0.709252,-0.765506 -0.877166,-0.720615 -2.802186,0.749192 -1.705511,1.302203 -3.172563,0.99595 -2.21701,-0.462812 0.217117,-0.331455 0.319387,-0.678037 0.227264,-0.770185 -0.533473,-0.533621 -3.648039,0.239458 -3.930443,0.97559 -0.07475,0.19486 0.08236,0.86366 0.349152,1.486221 0.497916,1.161916 1.206371,1.656224 2.122504,1.480928 0.27492,-0.0526 1.731255,-0.270516 3.236299,-0.48425 z m 0.481681,-11.844883 c 1.254155,-0.670425 2.594384,-1.292519 2.978285,-1.38243 1.053167,-0.246656 1.083742,-0.785578 0.151444,-2.669426 -0.994367,-2.009261 -1.345096,-2.180929 -3.514795,-1.720361 -1.420571,0.301548 -1.536793,0.381283 -1.958143,1.343406 -0.246366,0.562559 -1.016978,1.576155 -1.712474,2.252435 -0.783608,0.761962 -1.197486,1.349278 -1.088234,1.544272 0.25766,0.459889 2.118021,1.813947 2.519677,1.833939 0.189178,0.0094 1.370086,-0.531409 2.62424,-1.201835 z m 32.457634,22.587788 -0.56375,-0.866423 0.56375,0.0858 c 0.557873,0.08491 0.800965,0.567379 0.644553,1.279256 -0.05224,0.237754 -0.280119,0.06146 -0.644553,-0.498637 z"
     id="path2533"
     style="fill:#6b4917" />
  <path
     d="m 12.246454,63.517169 c 0,-1.367115 0.580977,-4.538959 1.026236,-5.602734 0.278487,-0.665337 0.473499,-1.52289 0.433358,-1.905672 -0.04014,-0.382782 0.137603,-1.132144 0.394985,-1.665251 0.257382,-0.533107 0.543374,-1.130531 0.635539,-1.327608 0.208796,-0.446473 1.622509,-0.972396 2.681708,-0.997638 1.794823,-0.04277 2.119232,-2.183016 0.638991,-4.215666 -1.572279,-2.159037 -2.564103,-3.900229 -2.44889,-4.299131 0.292042,-1.011137 0.428631,-4.948775 0.177058,-5.104298 -0.148075,-0.09154 -1.058349,0.231067 -2.022831,0.716907 -0.964482,0.485838 -1.896996,0.88152 -2.072252,0.87929 -0.175257,-0.0022 -1.19828,-2.055323 -2.2733852,-4.562434 -1.7344351,-4.044646 -1.9245632,-4.637698 -1.6870115,-5.262147 0.1472486,-0.387069 0.269447,-1.062059 0.2715519,-1.499978 0.0021,-0.437916 0.086455,-0.670702 0.1874457,-0.517299 0.1009902,0.153399 0.6507265,0.515754 1.2216362,0.80523 1.4551659,0.737834 2.5146709,2.118197 2.8440769,3.705371 0.379922,1.830584 0.876903,2.367704 1.972518,2.131834 0.725219,-0.156129 0.90985,-0.34571 1.207984,-1.240357 0.193557,-0.580833 0.426901,-1.051671 0.518541,-1.04631 0.09164,0.0054 0.535702,0.511606 0.986805,1.124984 0.451101,0.613379 0.962828,1.115234 1.13717,1.115234 0.895474,0 1.19114,-1.363957 0.54192,-2.499964 -0.399638,-0.699285 -0.499915,-2.249967 -0.145499,-2.249967 0.450943,0 2.679922,1.236337 3.134172,1.738415 0.6418,0.709377 1.011309,0.642343 1.658859,-0.300936 0.306771,-0.446869 0.779004,-1.060392 1.049407,-1.363385 l 0.491641,-0.550899 1.029515,0.516612 c 0.566236,0.284136 1.256051,0.723602 1.532923,0.976591 0.491261,0.448884 0.548551,0.439266 2.374313,-0.398594 1.029,-0.472218 2.126669,-0.860653 2.439268,-0.863191 0.3126,-0.0025 1.140608,-0.398354 1.84002,-0.879597 0.699413,-0.481243 1.371505,-0.874987 1.49354,-0.874987 0.357194,0 0.256146,-0.911152 -0.209326,-1.887528 -0.408327,-0.856504 -0.408327,-0.917312 0,-1.145886 0.559852,-0.313397 0.555916,-1.384075 -0.0062,-1.676384 -0.833833,-0.433634 -3.265694,-0.574159 -4.856781,-0.280649 -2.101997,0.387758 -4.453023,1.282497 -4.453023,1.694705 0,0.560954 -1.250387,2.501936 -2.039763,3.166337 -1.047691,0.881814 -2.127905,0.814135 -4.210288,-0.263796 -1.648916,-0.853551 -2.232669,-1.523993 -1.856723,-2.132455 0.0952,-0.154087 0.259014,-1.063016 0.364017,-2.019839 0.135931,-1.238635 0.342657,-1.901244 0.717778,-2.300651 0.289773,-0.308534 0.526861,-0.692749 0.526861,-0.853809 0,-0.419741 1.719596,-1.472515 2.749204,-1.68312 0.481111,-0.09841 1.529847,-0.489709 2.330526,-0.869552 0.813034,-0.385704 1.679123,-0.632201 1.961638,-0.558301 0.349877,0.09152 0.671643,-0.07499 1.043498,-0.539999 0.438336,-0.548144 0.791524,-0.692247 1.912239,-0.780212 0.756031,-0.05934 1.880705,-0.229557 2.499276,-0.378256 0.618571,-0.148699 1.799479,-0.333195 2.62424,-0.409991 0.824761,-0.0768 1.625867,-0.240725 1.780237,-0.364287 0.154368,-0.123561 0.462776,-0.869604 0.685349,-1.657874 0.31846,-1.127863 0.569153,-1.526425 1.176667,-1.870709 0.424595,-0.240622 0.97728,-0.437494 1.228189,-0.437494 0.25091,0 1.328078,0.589181 2.393705,1.309293 2.055654,1.389135 3.312446,3.004322 4.914219,6.315596 1.664033,3.439981 1.684277,3.461103 3.688527,3.848867 1.96667,0.380494 2.383417,0.215685 2.146623,-0.84891 -0.06117,-0.274996 -0.172972,-1.343731 -0.248455,-2.374966 l -0.13724,-1.874972 0.502764,2.499963 c 0.276522,1.37498 0.733583,3.524705 1.015691,4.777167 l 0.512926,2.277201 -0.714458,4.829268 c -0.392954,2.656098 -0.836353,4.869909 -0.985334,4.919584 -0.14898,0.04967 -0.845346,-0.363903 -1.54748,-0.91906 -1.794878,-1.419159 -2.121083,-1.361825 -1.909069,0.335545 0.338559,2.710484 0.230718,6.972469 -0.200615,7.92845 -0.394103,0.873467 -0.387538,0.92478 0.235676,1.842176 0.659902,0.971398 0.543723,1.358211 -0.417011,1.388395 -0.507898,0.01596 -1.249638,0.603634 -1.249638,0.990081 0,0.191012 0.195873,0.262856 0.499855,0.183342 0.274921,-0.07191 0.499856,-0.02878 0.499856,0.09584 0,0.124626 -0.258676,0.226592 -0.574834,0.226592 -0.316158,0 -0.687221,0.112418 -0.824581,0.249816 -0.490613,0.490748 -0.04116,2.043373 1.037746,3.584873 1.531617,2.188318 2.611449,4.294591 3.128424,6.102164 0.605473,2.116997 1.51451,3.912331 1.77395,3.503522 0.110145,-0.17356 0.201988,-0.568687 0.204093,-0.878058 0.0021,-0.30937 0.144411,-0.561098 0.316236,-0.559396 0.419345,0.0042 1.470021,1.659503 1.699613,2.677751 l 0.184686,0.819103 -6.002427,0 -6.002426,0 0.402703,-0.562492 c 0.221486,-0.309371 0.700734,-1.16895 1.064994,-1.910177 0.612765,-1.246907 0.640809,-1.440776 0.375026,-2.592528 -0.482237,-2.089744 -0.952701,-2.812066 -2.314412,-3.553405 -1.248286,-0.67959 -1.263682,-0.681298 -2.361751,-0.261826 -0.607899,0.232223 -1.245669,0.620653 -1.417262,0.863174 -0.171596,0.242522 -0.686637,0.866196 -1.144534,1.385943 -0.734812,0.834063 -0.983705,0.953148 -2.120306,1.014492 -0.981183,0.05296 -1.52674,-0.06872 -2.291553,-0.511072 -1.085514,-0.627846 -4.602672,-1.753555 -6.310033,-2.019603 -1.246152,-0.19418 -1.443495,-0.397374 -1.677632,-1.727363 -0.394398,-2.240353 -1.748769,-2.852521 -2.903747,-1.312481 -0.54412,0.725528 -0.605095,1.039928 -0.56969,2.937457 0.05653,3.02957 1.33021,7.749888 2.091155,7.749888 0.13393,0 0.24351,0.112498 0.24351,0.249996 0,0.155171 -1.374602,0.249997 -3.623951,0.249997 -3.0913,0 -3.623951,-0.0564 -3.623951,-0.383722 0,-0.637775 -1.300573,-4.366209 -1.523046,-4.366209 -0.213406,0 -0.459496,0.818173 -0.996322,3.312452 l -0.309377,1.437479 -1.084904,0 c -0.90471,0 -1.084903,-0.08004 -1.084903,-0.481903 z M 26.887541,43.383416 c 1.681988,-0.396801 2.664317,-0.538874 5.962032,-0.86229 1.652098,-0.162025 2.315971,-0.33194 2.550518,-0.652788 0.174394,-0.238564 1.024021,-0.618646 1.888058,-0.84463 1.671986,-0.437294 2.044711,-0.894325 1.320301,-1.618935 -0.222876,-0.222936 -0.730639,-0.405339 -1.128363,-0.405339 -0.469814,0 -0.817822,-0.176964 -0.993418,-0.505159 -0.345668,-0.646061 -0.125653,-0.994819 0.627584,-0.994819 0.869935,0 1.011149,-0.459168 0.197667,-0.642731 -0.383639,-0.08657 -1.10279,-0.258511 -1.59812,-0.382094 -0.59247,-0.147818 -1.177631,-0.128093 -1.710322,0.05766 -0.618718,0.215744 -1.054797,0.206939 -1.848609,-0.03733 -2.298138,-0.707162 -2.977441,-0.728402 -6.162396,-0.192678 l -3.124095,0.525488 -1.562048,1.516103 c -0.971398,0.942826 -1.562047,1.721413 -1.562047,2.05907 0,0.298634 -0.176234,0.610614 -0.39163,0.693293 -0.255393,0.09803 -0.364072,0.389974 -0.312409,0.839233 0.071,0.617416 0.198556,0.702647 1.229098,0.821265 0.632432,0.07279 1.343388,0.325915 1.579899,0.562492 0.543939,0.544087 2.878023,0.573824 5.0383,0.06419 z M 24.341203,25.104189 c 0.273586,-0.713148 0.161069,-0.866418 -0.512001,-0.697441 -0.483268,0.121325 -0.75179,0.04613 -0.987703,-0.276589 -0.434672,-0.594613 -1.157861,-0.305694 -1.052843,0.420619 0.122036,0.844007 2.262994,1.308182 2.552547,0.553411 z"
     id="path2531"
     style="fill:#56300c" />
  <path
     d="m 13.264234,63.465305 c 0.220799,-0.412679 0.332448,-0.457921 0.492159,-0.199435 0.256121,0.414529 0.07844,0.733202 -0.408809,0.733202 -0.299269,0 -0.315008,-0.100791 -0.08335,-0.533767 z m 30.723028,0.31438 c 0,-0.12066 0.17427,-0.364055 0.387263,-0.540872 0.212995,-0.17682 0.619978,-0.83247 0.904408,-1.457004 1.000081,-2.195915 -0.06008,-5.8757 -2.077556,-7.211172 -0.979284,-0.648239 -0.993412,-0.649809 -1.910699,-0.212265 -0.508268,0.242444 -1.65589,0.931321 -2.550274,1.530842 -2.380093,1.59542 -3.424834,1.913711 -4.76523,1.451779 C 32.645932,56.882908 28.465389,55.843 27.083829,55.626778 26.053011,55.465451 26.050189,55.461986 25.763874,54.006277 25.606062,53.203923 25.336648,52.43098 25.16517,52.288627 24.993693,52.146277 23.847866,51.665864 22.618889,51.221045 20.252671,50.364613 19.950766,50.127291 18.369681,47.880861 17.81984,47.099637 16.999157,45.955046 16.54594,45.337325 l -0.824031,-1.123128 0.261694,-2.347531 c 0.374053,-3.355467 0.356367,-3.617221 -0.244402,-3.617221 -0.278352,0 -1.302084,0.400964 -2.274963,0.891032 -0.972877,0.490068 -1.814152,0.845736 -1.869501,0.790372 -0.167868,-0.167913 -3.0903964,-6.905278 -3.477898,-8.017667 -0.4974555,-1.428029 -0.4607066,-1.616013 0.1932545,-0.988576 0.3092854,0.296741 0.8531654,0.805169 1.2086223,1.129834 0.466129,0.425754 0.6873722,0.935926 0.7936772,1.830176 0.16422,1.381432 0.914743,3.309518 1.526424,3.921366 0.348371,0.348468 0.571958,0.360154 1.73159,0.09052 1.774713,-0.412659 1.880487,-0.49838 2.20484,-1.786862 0.153704,-0.610578 0.363961,-1.110144 0.467238,-1.110144 0.103277,0 0.327539,0.499321 0.498359,1.109599 0.245329,0.876471 0.247212,1.546161 0.009,3.187454 -0.165893,1.142821 -0.262922,2.630842 -0.215621,3.306712 l 0.086,1.228857 2.21735,0.713305 c 1.219542,0.392317 2.555177,0.953924 2.968078,1.248015 l 0.750728,0.534712 3.779968,-0.572322 c 2.078983,-0.314778 4.511006,-0.758077 5.404498,-0.985108 1.091529,-0.277353 1.993529,-0.354655 2.749204,-0.235607 0.61857,0.09745 1.855712,0.1851 2.749203,0.194777 2.006949,0.02174 2.848585,-0.437488 3.950881,-2.155744 l 0.795012,-1.239257 -0.470069,-2.212774 c -0.535155,-2.519169 -0.661845,-2.662587 -2.986472,-3.380789 -1.996535,-0.616836 -2.556868,-0.615649 -3.847646,0.0082 -1.279687,0.618449 -1.501138,0.619234 -3.100957,0.011 -1.450233,-0.551359 -4.656636,-1.01099 -7.052718,-1.01099 l -1.603304,0 1.096891,-1.075349 c 0.603292,-0.591444 1.298961,-1.378932 1.545933,-1.749975 0.541725,-0.813868 0.76457,-0.83566 1.457502,-0.142538 0.464578,0.464706 0.641825,0.498353 1.399645,0.265709 0.987439,-0.303138 1.378721,-0.190925 3.313791,0.950346 1.255798,0.740652 1.388374,0.771004 1.62255,0.37147 0.140256,-0.239297 0.96619,-1.511806 1.835408,-2.827797 1.359127,-2.05771 1.559326,-2.505051 1.429908,-3.195096 -0.129699,-0.691555 -0.04593,-0.876855 0.606472,-1.341533 0.756946,-0.539142 0.901251,-1.066074 0.599932,-2.190658 -0.178424,-0.665912 -1.104189,-0.961481 -3.975267,-1.26918 -1.765386,-0.189201 -2.462122,-0.118369 -6.337977,0.644333 -3.907521,0.768932 -4.377425,0.816019 -4.577354,0.458668 -0.287644,-0.514134 -0.912501,-0.507632 -1.490404,0.01551 -0.428455,0.387852 -0.457052,0.38214 -0.457052,-0.09128 0,-0.277764 0.233097,-0.801442 0.517995,-1.16373 0.477715,-0.607485 0.449802,-0.780167 -0.109699,-0.678615 -0.422548,0.07669 -1.407909,-0.748214 -1.40156,-1.173336 0.01066,-0.713602 3.417952,-1.95786 6.234901,-2.276828 1.098264,-0.124358 1.424937,-0.26981 1.657965,-0.738213 0.159616,-0.320836 0.604707,-0.746547 0.989093,-0.946024 0.604547,-0.313729 0.746909,-0.314648 1.054667,-0.0068 0.195681,0.195734 0.432475,0.733944 0.526208,1.196021 0.134441,0.662761 0.307021,0.856201 0.817413,0.916212 0.824464,0.09694 1.459615,-0.534487 1.459615,-1.451052 0,-1.024335 0.58759,-1.519561 1.571717,-1.324658 0.441427,0.08742 0.918514,0.315522 1.060191,0.506886 0.218472,0.295087 0.636036,0.29818 2.749204,0.02036 l 2.491608,-0.327573 0.591151,-1.270345 c 1.097407,-2.358255 1.958943,-2.253741 3.693719,0.448092 1.271946,1.980998 2.507588,4.550423 3.205096,6.664752 0.528277,1.601348 1.14218,2.282383 2.0574,2.282383 0.371214,0 1.326742,0.193549 2.123397,0.430109 1.34457,0.399259 1.460285,0.493156 1.61332,1.309126 0.151284,0.806638 -1.028742,9.960039 -1.321807,10.253184 -0.143703,0.143743 -0.984248,-0.367084 -2.182701,-1.326505 -0.487049,-0.389908 -1.002719,-0.636481 -1.145935,-0.547946 -0.17042,0.105357 -0.20645,1.084553 -0.104275,2.833892 0.212816,3.643563 0.124429,5.512177 -0.299518,6.332221 -0.316756,0.612709 -1.096932,1.349585 -3.074025,2.903415 -0.44148,0.346965 -0.59625,0.721795 -0.607164,1.470459 -0.01607,1.102384 1.314656,3.495414 3.665496,6.591607 1.781922,2.346894 1.907915,2.767342 1.907915,6.366877 l 0,3.132985 -3.374023,0 c -1.855712,0 -3.374023,-0.09872 -3.374023,-0.219387 z"
     id="path2529"
     style="fill:#2c1c07" />
  <g
     id="layer1">
    <path
       d="m 7,6.25 c 16,-4.5 59.75,-8 54.25,6.5 -5.951036,15.689094 7.071982,31.06516 -4.75,41.5 C 45.54203,63.922208 3.8528575,65.721425 6.25,51 8.8129802,35.260126 -4.1590996,14.945843 7,6.25 z"
       id="path3159"
       style="fill:none;stroke:#ffe000;stroke-width:4.99999905;stroke-linecap:round;stroke-linejoin:round;stroke-miterlimit:4;stroke-opacity:1;stroke-dasharray:9.9999979, 9.9999979;stroke-dashoffset:0" />
  </g>
</svg>
