<?xml version="1.0" encoding="UTF-8" standalone="no"?>
<!-- Created with Inkscape (http://www.inkscape.org/) -->
<svg
   xmlns:svg="http://www.w3.org/2000/svg"
   xmlns="http://www.w3.org/2000/svg"
   version="1.0"
   width="64"
   height="64"
   id="svg2">
  <defs
     id="defs4" />
  <path
     d="M 57,32 A 25,25 0 1 1 7,32 25,25 0 1 1 57,32 z"
     id="path3705"
     style="fill:#5c5ca0;fill-opacity:1;fill-rule:nonzero;stroke:#80a0e0;stroke-width:1.5;stroke-linecap:round;stroke-linejoin:round;stroke-miterlimit:4;stroke-opacity:1;stroke-dasharray:none;stroke-dashoffset:0" />
  <path
     d="m 7,6.25 c 16,-4.5 59.75,-8 54.25,6.5 -5.951036,15.689094 7.071982,31.06516 -4.75,41.5 C 45.54203,63.922208 3.8528575,65.721425 6.25,51 8.8129802,35.260126 -4.1590996,14.945843 7,6.25 z"
     id="path3159"
     style="fill:none;stroke:#ffe000;stroke-width:4.99999905;stroke-linecap:round;stroke-linejoin:round;stroke-miterlimit:4;stroke-opacity:1;stroke-dasharray:9.9999979, 9.9999979;stroke-dashoffset:0" />
  <path
     d="m 20.958333,10.916667 c 3,3.166667 5.875,10.916666 4.375,15.083333 -1.5,4.166667 0.333334,5.5 6,-0.333333 C 37,19.833333 30.833333,16.166667 33.666667,13 36.5,9.8333333 36.645834,8.6458333 36.645834,8.6458333 36.786938,8.2695538 26.632228,7.1751715 20.958333,10.916667 z"
     id="path3931"
     style="fill:#60c060;fill-opacity:1;fill-rule:evenodd;stroke:#40a040;stroke-width:1px;stroke-linecap:round;stroke-linejoin:round;stroke-opacity:1" />
  <path
     d="m 19.887378,52.399029 c 0.707107,-2.65165 11.026447,-9.877398 14.738757,-8.463184 3.712311,1.414214 4.993942,4.795068 8.175922,3.204077 3.181981,-1.59099 6.193173,0.327519 5.347496,2.20971 -2.143572,4.77086 -19.228821,10.013728 -28.262175,3.049397 z"
     id="path3933"
     style="fill:#60c060;fill-opacity:1;fill-rule:evenodd;stroke:#40a040;stroke-width:1px;stroke-linecap:butt;stroke-linejoin:round;stroke-opacity:1" />
  <path
     d="m 37.522141,31.162442 c 3.183696,-3.092734 10.642643,-10.733607 8.5505,-13.735378 -2.092144,-3.001771 -4.489514,-6.231858 -1.682812,-5.662432 4.324326,0.877323 16.419151,16.666538 7.86828,21.990249 -8.27963,5.154839 -16.327817,-0.31837 -14.735968,-2.592439 z"
     id="path3935"
     style="fill:#60c060;fill-opacity:1;fill-rule:evenodd;stroke:#40a040;stroke-width:1px;stroke-linecap:butt;stroke-linejoin:miter;stroke-opacity:1" />
  <path
     d="m 13.700243,26.050971 c 5.595873,-0.707524 3.987864,4.888349 8.618932,6.432039 4.631068,1.543689 15.758495,0.321602 7.396844,5.917476 -8.36165,5.595873 -14.407767,5.981796 -15.951456,1.543689 -1.543689,-4.438107 -3.087379,-13.18568 -0.06432,-13.893204 z"
     id="path3937"
     style="fill:#60c060;fill-opacity:1;fill-rule:evenodd;stroke:#40a040;stroke-width:1px;stroke-linecap:butt;stroke-linejoin:miter;stroke-opacity:1" />
</svg>
