<?xml version="1.0" encoding="UTF-8" standalone="no"?>
<!-- Created with Inkscape (http://www.inkscape.org/) -->

<svg
   xmlns:dc="http://purl.org/dc/elements/1.1/"
   xmlns:cc="http://creativecommons.org/ns#"
   xmlns:rdf="http://www.w3.org/1999/02/22-rdf-syntax-ns#"
   xmlns:svg="http://www.w3.org/2000/svg"
   xmlns="http://www.w3.org/2000/svg"
   xmlns:sodipodi="http://sodipodi.sourceforge.net/DTD/sodipodi-0.dtd"
   xmlns:inkscape="http://www.inkscape.org/namespaces/inkscape"
   version="1.0"
   width="64"
   height="64"
   id="svg2"
   inkscape:version="0.46+devel r21713"
   sodipodi:docname="feet.svg"
   inkscape:output_extension="org.inkscape.output.svg.inkscape">
  <metadata
     id="metadata8">
    <rdf:RDF>
      <cc:Work
         rdf:about="">
        <dc:format>image/svg+xml</dc:format>
        <dc:type
           rdf:resource="http://purl.org/dc/dcmitype/StillImage" />
        <dc:title></dc:title>
      </cc:Work>
    </rdf:RDF>
  </metadata>
  <sodipodi:namedview
     pagecolor="#ffffff"
     bordercolor="#666666"
     borderopacity="1"
     objecttolerance="10"
     gridtolerance="10"
     guidetolerance="10"
     inkscape:pageopacity="0"
     inkscape:pageshadow="2"
     inkscape:window-width="1563"
     inkscape:window-height="1215"
     id="namedview6"
     showgrid="false"
     inkscape:zoom="8"
     inkscape:cx="5.3125"
     inkscape:cy="32"
     inkscape:window-x="0"
     inkscape:window-y="0"
     inkscape:window-maximized="0"
     inkscape:current-layer="svg2" />
  <defs
     id="defs4">
    <inkscape:perspective
       sodipodi:type="inkscape:persp3d"
       inkscape:vp_x="0 : 32 : 1"
       inkscape:vp_y="0 : 1000 : 0"
       inkscape:vp_z="64 : 32 : 1"
       inkscape:persp3d-origin="32 : 21.333333 : 1"
       id="perspective10" />
    <inkscape:perspective
       id="perspective4918"
       inkscape:persp3d-origin="0.5 : 0.33333333 : 1"
       inkscape:vp_z="1 : 0.5 : 1"
       inkscape:vp_y="0 : 1000 : 0"
       inkscape:vp_x="0 : 0.5 : 1"
       sodipodi:type="inkscape:persp3d" />
  </defs>
  <path
     style="fill:#ff4040;fill-opacity:1;stroke:#c40000;stroke-width:1px;stroke-linecap:butt;stroke-linejoin:miter;stroke-opacity:1"
     d="m 43.080591,20.869449 c 0,0 -3.25,20.875 -0.875,21.375 2.375,0.5 11.75,-2.125 15,4.625 3.25,6.75 -20.625,4.5 -21.875,4 -1.25,-0.5 -0.125,-29.75 -0.125,-29.75 l 7.875,-0.25 z"
     id="path4398-8" />
  <path
     style="fill:#ff4040;stroke:#c40000;stroke-width:1px;stroke-linecap:butt;stroke-linejoin:miter;stroke-opacity:1;fill-opacity:1"
     d="m 23.625,20.75 c 0,0 3.25,20.875 0.875,21.375 -2.375,0.5 -11.75,-2.125 -15,4.625 -3.25,6.75 20.625,4.5 21.875,4 C 32.625,50.25 31.5,21 31.5,21 l -7.875,-0.25 z"
     id="path4398" />
  <g
     id="layer1">
    <path
       d="m 7,6.25 c 16,-4.5 59.75,-8 54.25,6.5 -5.951036,15.689094 7.071982,31.06516 -4.75,41.5 C 45.54203,63.922208 3.8528575,65.721425 6.25,51 8.8129802,35.260126 -4.1590996,14.945843 7,6.25 z"
       id="path3159"
       style="fill:none;stroke:#ffe000;stroke-width:4.99999905;stroke-linecap:round;stroke-linejoin:round;stroke-miterlimit:4;stroke-opacity:1;stroke-dasharray:9.9999979, 9.9999979;stroke-dashoffset:0" />
  </g>
</svg>
