<?xml version="1.0" encoding="UTF-8" standalone="no"?>
<!-- Created with Inkscape (http://www.inkscape.org/) -->
<svg
   xmlns:svg="http://www.w3.org/2000/svg"
   xmlns="http://www.w3.org/2000/svg"
   version="1.0"
   width="64"
   height="64"
   id="svg2">
  <defs
     id="defs4" />
  <path
     d="m 7,6.25 c 16,-4.5 59.75,-8 54.25,6.5 -5.951036,15.689094 7.071982,31.06516 -4.75,41.5 C 45.54203,63.922208 3.8528575,65.721425 6.25,51 8.8129802,35.260126 -4.1590996,14.945843 7,6.25 z"
     id="path3159"
     style="fill:none;stroke:#ffe000;stroke-width:4.99999905;stroke-linecap:round;stroke-linejoin:round;stroke-miterlimit:4;stroke-opacity:1;stroke-dasharray:9.9999979, 9.9999979;stroke-dashoffset:0" />
  <path
     d="m 54.434211,27.213563 c 1.640688,5.266194 7.341093,13.002024 -0.408907,17.752024 -7.75,4.75 -15.575405,5.966599 -19.575405,3.466599 C 30.449899,45.932186 22,55.125 17.625,50.75 c -3.875,-5 -7.340264,-26.082774 -4.336538,-28.11336 6.84126,-4.624847 15.499077,2.272263 15.013664,-1.82085 -1.332884,-11.2391584 2.917644,-15.0827275 11.19585,0.329453 1.719366,3.201078 3.657699,-9.122354 7.640688,-5.656377 6.628297,5.767912 5.654858,8.013158 7.295547,11.724697 z"
     id="path5442"
     style="fill:#c0c0c0;fill-opacity:1;fill-rule:evenodd;stroke:#7f7f7f;stroke-width:2.4000001;stroke-linecap:round;stroke-linejoin:round;stroke-miterlimit:4;stroke-opacity:1;stroke-dasharray:none" />
  <path
     d="m 14.875,42.75 c 1.5,-10.875 17.75,-5.375 17.75,-5.375"
     id="path5444"
     style="fill:none;stroke:#7f7f7f;stroke-width:2.4000001;stroke-linecap:round;stroke-linejoin:round;stroke-miterlimit:4;stroke-opacity:1;stroke-dasharray:none" />
  <path
     d="M 12.18168,29.563765 C 14.43168,28.313765 19.875,24.25 23,25.5"
     id="path5446"
     style="fill:none;stroke:#7f7f7f;stroke-width:2.4000001;stroke-linecap:round;stroke-linejoin:round;stroke-miterlimit:4;stroke-opacity:1;stroke-dasharray:none" />
  <path
     d="m 34.75,34.625 c 2.125,-3.125 1.794547,-5.196596 9.25,-4 10.429367,1.673908 9.634819,-6.443244 9.234312,-6.343117"
     id="path5448"
     style="fill:none;stroke:#7f7f7f;stroke-width:2.4000001;stroke-linecap:round;stroke-linejoin:round;stroke-miterlimit:4;stroke-opacity:1;stroke-dasharray:none" />
</svg>
